
<svg width="32" height="32" viewBox="0 0 32 32" fill="none" xmlns="http://www.w3.org/2000/svg">
  <rect width="32" height="32" rx="8" fill="black"/>
  <path d="M16 27C21.5228 27 26 22.5228 26 17C26 11.4772 21.5228 7 16 7C10.4772 7 6 11.4772 6 17C6 22.5228 10.4772 27 16 27Z" stroke="white" stroke-width="1.5"/>
  <path d="M16 23C19.3137 23 22 20.3137 22 17C22 13.6863 19.3137 11 16 11C12.6863 11 10 13.6863 10 17C10 20.3137 12.6863 23 16 23Z" stroke="white" stroke-width="1.5"/>
  <path d="M16 19C17.1046 19 18 18.1046 18 17C18 15.8954 17.1046 15 16 15C14.8954 15 14 15.8954 14 17C14 18.1046 14.8954 19 16 19Z" fill="white"/>
  <path d="M10 6L13 9" stroke="white" stroke-width="1.5" stroke-linecap="round"/>
  <path d="M22 6L19 9" stroke="white" stroke-width="1.5" stroke-linecap="round"/>
  <path d="M19 25L22 28" stroke="white" stroke-width="1.5" stroke-linecap="round"/>
  <path d="M13 25L10 28" stroke="white" stroke-width="1.5" stroke-linecap="round"/>
</svg>
