
<svg width="32" height="32" viewBox="0 0 32 32" fill="none" xmlns="http://www.w3.org/2000/svg">
  <rect width="32" height="32" rx="8" fill="black"/>
  <path d="M16 7C11.0294 7 7 11.0294 7 16C7 20.9706 11.0294 25 16 25C20.9706 25 25 20.9706 25 16C25 11.0294 20.9706 7 16 7Z" stroke="white" stroke-width="2"/>
  <path d="M16 11V16L19 19" stroke="white" stroke-width="2" stroke-linecap="round" stroke-linejoin="round"/>
  <path d="M12 9.5L14 8" stroke="white" stroke-width="1.5" stroke-linecap="round"/>
  <path d="M20 9.5L18 8" stroke="white" stroke-width="1.5" stroke-linecap="round"/>
  <path d="M9.5 12L8 14" stroke="white" stroke-width="1.5" stroke-linecap="round"/>
  <path d="M9.5 20L8 18" stroke="white" stroke-width="1.5" stroke-linecap="round"/>
  <path d="M22.5 12L24 14" stroke="white" stroke-width="1.5" stroke-linecap="round"/>
  <path d="M22.5 20L24 18" stroke="white" stroke-width="1.5" stroke-linecap="round"/>
</svg>
